<svg t="1686474725200" class="icon" viewBox="0 0 1024 1024" version="1.1" xmlns="http://www.w3.org/2000/svg" p-id="956" width="200" height="200"><path d="M833 725.77H191c-33.08 0-60-26.92-60-60v-418c0-33.08 26.92-60 60-60h642c33.08 0 60 26.92 60 60v418c0 33.08-26.92 60-60 60z m-642-518c-22.06 0-40 17.94-40 40v418c0 22.06 17.94 40 40 40h642c22.06 0 40-17.94 40-40v-418c0-22.06-17.94-40-40-40H191z" fill="#6176E7" p-id="957"></path><path d="M544.81 790.77H479.2c-11.58 0-21-9.42-21-21v-41.53c0-11.58 9.42-21 21-21h65.61c11.58 0 21 9.42 21 21v41.53c0 11.58-9.42 21-21 21z m-65.62-65.53c-1.63 0-3 1.37-3 3v41.53c0 1.63 1.37 3 3 3h65.61c1.63 0 3-1.37 3-3v-41.53c0-1.63-1.37-3-3-3h-65.61z" fill="#6176E7" p-id="958"></path><path d="M606.61 835.23H417.39c-11.58 0-21-9.42-21-21v-19.99c0-11.58 9.42-21 21-21h189.22c11.58 0 21 9.42 21 21v19.99c0 11.58-9.42 21-21 21z m-189.22-43.99c-1.63 0-3 1.37-3 3v19.99c0 1.63 1.37 3 3 3h189.22c1.63 0 3-1.37 3-3v-19.99c0-1.63-1.37-3-3-3H417.39zM269.53 398.53h20.61v-65.54h-16.9v-9.34c8.83-1.66 15.1-3.84 20.48-7.17h11.14v82.05h18.43v12.16h-53.76v-12.16z" fill="#6176E7" p-id="959"></path><path d="M323.29 412.69h-53.76c-1.1 0-2-0.9-2-2v-12.16c0-1.1 0.9-2 2-2h18.61v-61.54h-14.9c-1.1 0-2-0.9-2-2v-9.34c0-0.96 0.68-1.79 1.63-1.97 8.6-1.62 14.7-3.75 19.8-6.9 0.32-0.2 0.68-0.3 1.05-0.3h11.14c1.1 0 2 0.9 2 2v80.05h16.43c1.1 0 2 0.9 2 2v12.16c0 1.11-0.89 2-2 2z m-51.76-4h49.76v-8.16h-16.43c-1.1 0-2-0.9-2-2v-80.05h-8.58c-5.09 3.06-11.04 5.19-19.04 6.81v5.7h14.9c1.1 0 2 0.9 2 2v65.54c0 1.1-0.9 2-2 2h-18.61v8.16zM487.54 363.2c0-32.64 11.9-48.51 30.47-48.51 18.43 0 30.47 16 30.47 48.51 0 32.77-12.03 49.15-30.47 49.15-18.57 0.01-30.47-16.38-30.47-49.15z m46.85 0c0-27.01-6.78-36.87-16.38-36.87-9.6 0-16.38 9.86-16.38 36.87 0 27.27 6.78 37.51 16.38 37.51 9.59 0 16.38-10.24 16.38-37.51z" fill="#6176E7" p-id="960"></path><path d="M518 414.36c-20.63 0-32.47-18.65-32.47-51.15 0-32.1 11.83-50.51 32.47-50.51 20.63 0 32.47 18.41 32.47 50.51 0 32.5-11.84 51.15-32.47 51.15z m0-97.67c-18.36 0-28.47 16.52-28.47 46.51 0 29.97 10.38 47.15 28.47 47.15 18.09 0 28.47-17.19 28.47-47.15 0-29.56-10.38-46.51-28.47-46.51z m0 86.02c-12.2 0-18.38-13.29-18.38-39.51 0-25.79 6.19-38.87 18.38-38.87 12.2 0 18.38 13.08 18.38 38.87 0.01 26.22-6.18 39.51-18.38 39.51z m0-74.37c-11.89 0-14.38 18.96-14.38 34.87 0 16.2 2.5 35.51 14.38 35.51s14.38-19.31 14.38-35.51c0.01-15.91-2.49-34.87-14.38-34.87zM715.53 398.53h20.61v-65.54h-16.9v-9.34c8.83-1.66 15.1-3.84 20.48-7.17h11.14v82.05h18.43v12.16h-53.76v-12.16z" fill="#6176E7" p-id="961"></path><path d="M769.29 412.69h-53.76c-1.1 0-2-0.9-2-2v-12.16c0-1.1 0.9-2 2-2h18.61v-61.54h-14.9c-1.1 0-2-0.9-2-2v-9.34c0-0.96 0.68-1.79 1.63-1.97 8.59-1.62 14.7-3.75 19.8-6.9 0.32-0.2 0.68-0.3 1.05-0.3h11.14c1.1 0 2 0.9 2 2v80.05h16.43c1.1 0 2 0.9 2 2v12.16c0 1.11-0.89 2-2 2z m-51.76-4h49.76v-8.16h-16.43c-1.1 0-2-0.9-2-2v-80.05h-8.58c-5.09 3.06-11.04 5.19-19.04 6.81v5.7h14.9c1.1 0 2 0.9 2 2v65.54c0 1.1-0.9 2-2 2h-18.61v8.16z" fill="#6176E7" p-id="962"></path><path d="M264.54 551.2c0-32.64 11.9-48.51 30.47-48.51 18.43 0 30.47 16 30.47 48.51 0 32.77-12.03 49.15-30.47 49.15-18.57 0.01-30.47-16.38-30.47-49.15z m46.85 0c0-27.01-6.78-36.87-16.38-36.87-9.6 0-16.38 9.86-16.38 36.87 0 27.27 6.78 37.51 16.38 37.51 9.59 0 16.38-10.24 16.38-37.51z" fill="#6176E7" p-id="963"></path><path d="M295 602.36c-20.63 0-32.47-18.64-32.47-51.15 0-32.1 11.83-50.51 32.47-50.51s32.47 18.41 32.47 50.51c0 32.5-11.84 51.15-32.47 51.15z m0-97.67c-18.36 0-28.47 16.52-28.47 46.51 0 29.97 10.38 47.15 28.47 47.15s28.47-17.19 28.47-47.15c0-29.56-10.38-46.51-28.47-46.51z m0 86.02c-12.2 0-18.38-13.29-18.38-39.51 0-25.79 6.19-38.87 18.38-38.87s18.38 13.08 18.38 38.87c0.01 26.22-6.18 39.51-18.38 39.51z m0-74.37c-11.89 0-14.38 18.96-14.38 34.87 0 16.2 2.5 35.51 14.38 35.51s14.38-19.31 14.38-35.51c0.01-15.91-2.49-34.87-14.38-34.87z" fill="#6176E7" p-id="964"></path><path d="M492.53 586.53h20.61v-65.54h-16.9v-9.34c8.83-1.66 15.1-3.84 20.48-7.17h11.14v82.05h18.43v12.16h-53.76v-12.16z" fill="#6176E7" p-id="965"></path><path d="M546.29 600.69h-53.76c-1.1 0-2-0.9-2-2v-12.16c0-1.1 0.9-2 2-2h18.61v-61.54h-14.9c-1.1 0-2-0.9-2-2v-9.34c0-0.96 0.68-1.79 1.63-1.97 8.6-1.62 14.7-3.75 19.8-6.9 0.32-0.2 0.68-0.3 1.05-0.3h11.14c1.1 0 2 0.9 2 2v80.05h16.43c1.1 0 2 0.9 2 2v12.16c0 1.11-0.89 2-2 2z m-51.76-4h49.76v-8.16h-16.43c-1.1 0-2-0.9-2-2v-80.05h-8.58c-5.09 3.06-11.04 5.19-19.04 6.82v5.7h14.9c1.1 0 2 0.9 2 2v65.54c0 1.1-0.9 2-2 2h-18.61v8.15z" fill="#6176E7" p-id="966"></path><path d="M710.54 551.2c0-32.64 11.9-48.51 30.46-48.51 18.43 0 30.47 16 30.47 48.51 0 32.77-12.03 49.15-30.47 49.15-18.56 0.01-30.46-16.38-30.46-49.15z m46.85 0c0-27.01-6.78-36.87-16.38-36.87-9.6 0-16.38 9.86-16.38 36.87 0 27.27 6.79 37.51 16.38 37.51s16.38-10.24 16.38-37.51z" fill="#6176E7" p-id="967"></path><path d="M741 602.36c-20.63 0-32.46-18.64-32.46-51.15 0-32.1 11.83-50.51 32.46-50.51 20.63 0 32.47 18.41 32.47 50.51 0 32.5-11.84 51.15-32.47 51.15z m0-97.67c-18.36 0-28.46 16.52-28.46 46.51 0 29.97 10.38 47.15 28.46 47.15 18.09 0 28.47-17.19 28.47-47.15 0-29.56-10.38-46.51-28.47-46.51z m0 86.02c-12.2 0-18.38-13.29-18.38-39.51 0-25.79 6.19-38.87 18.38-38.87s18.38 13.08 18.38 38.87c0.01 26.22-6.18 39.51-18.38 39.51z m0-74.37c-11.89 0-14.38 18.96-14.38 34.87 0 16.2 2.5 35.51 14.38 35.51s14.38-19.31 14.38-35.51c0.01-15.91-2.49-34.87-14.38-34.87z" fill="#6176E7" p-id="968"></path></svg>